<svg xmlns="http://www.w3.org/2000/svg" width="302" height="38" viewBox="0 0 151 19"><path fill="#d99e09" d="M15.376363 16.97151c-.268.152-2.185 1.777-6 1.777-3.214.002-6.646-1.645-7.724-1.613-.379-.016-.683.061-.922.166-.45.189-.887-.087-.643-.549.846-1.599 2.28-2.583 3.639-2.993.991-.299 1.896-.4 2.366.122 1.032 1.146 2.898 2.561 4.712 2.747.146.015.805.07.812-.116.007-.114-.217-.188-.444-.205-1.853-.134-5.192-2.117-7.027-5.957-.689-1.441-1.236-2.838-2.435-3.446-.266-.128-.274-.619.284-.752.391-.093 2.856-.33 5.675 1.154 1.294.681 1.475 1.292 1.479 1.825-.011 4.024 2.025 5.621 2.812 6.093.438.262.848.374.892.237.035-.115-.08-.193-.181-.254-2.441-1.482-3.086-3.762-3.105-6.083-.018-2.296.832-4.283 1.435-5.911.089-.23.375-1.2.132-2.098-.182-.67-.034-.865.318-.865.387 0 .902.626 1.075.841.139.161.588.709 1.268 2.052 1.345 2.659 1.354 5.437 1.354 5.777 0 1.909-.492 2.13-1.294 2.526-.801.396-1.182.906-1.183 1.498-.002.608.422 1.241 1.183 1.464.589.172.963.107.932-.046-.024-.121-.285-.151-.361-.172-.803-.218-1.335-.629-1.335-1.246 0-.77.949-1.335 2.284-1.335 1.336 0 2.285.565 2.285 1.335 0 .617-.531 1.029-1.334 1.246-.076.021-.337.051-.361.172-.031.154.343.219.933.046.76-.222 1.183-.855 1.182-1.464-.001-.591-.382-1.102-1.182-1.498-.802-.396-1.295-.617-1.295-2.525 0-.34.01-3.119 1.354-5.778.68-1.342 1.129-1.891 1.268-2.052.173-.215.688-.841 1.075-.841.352 0 .5.195.318.865-.241.898.043 1.868.131 2.098.604 1.63 1.455 3.615 1.437 5.911-.02 2.322-.664 4.602-3.105 6.084-.1.06-.218.138-.181.253.043.138.453.027.891-.236.788-.472 2.823-2.07 2.813-6.094.003-.533.184-1.144 1.479-1.825 2.819-1.484 5.284-1.246 5.674-1.154.558.133.551.625.285.752-1.2.608-1.747 2.006-2.435 3.446-1.835 3.84-5.175 5.824-7.028 5.958-.227.016-.452.091-.444.205.007.185.666.13.812.115 1.814-.185 3.68-1.6 4.712-2.747.471-.521 1.375-.421 2.367-.121 1.358.409 2.792 1.393 3.638 2.993.245.462-.192.737-.643.549-.239-.105-.543-.182-.922-.167-1.077-.031-4.509 1.615-7.725 1.614-3.814 0-5.73-1.626-5.997-1.778"/><path fill="#005e80" d="M113.013063 11.05151c0-.657.705-1.006 1.479-1.006 1.319 0 1.171 1.051 2.113 1.051.428 0 .689-.244.689-.664 0-.726-.965-1.208-2.465-1.257-1.436-.046-2.182.207-2.696.408-.577.226-.832.554-.832 1.068v7.127c0 .376.182.376.857.376.671 0 .855 0 .855-.376zm-43.318 1.267c.004-2.706-2.355-3.134-4.065-3.134-1.38 0-2.619.349-3.201.606-.575.255-.624.573-.624 1.098l.004 6.898c0 .375.184.375.856.375.674 0 .857 0 .857-.375l-.004-6.368c0-.563.2-1.339 2.153-1.339 1.847 0 2.309 1.092 2.309 2.239l.003 5.468c0 .375.185.375.854.375.675 0 .858 0 .858-.375zm38.251 5.456c0 .375.185.375.853.375.673 0 .857 0 .857-.375l.007-8.122c.007-.597-.815-.447-1.234-.173-.47.305-.485.459-.485 1.051zm-9.063-4.793c.253-.646 1.879-4.898 1.965-5.138.025-.068.095-.068.122.002.116.298 1.758 4.476 2.001 5.123.054.141.073.257-.114.257h-3.836c-.236 0-.179-.142-.138-.244m4.73 1.569c.583 1.384 1.386 3.313 1.386 3.313.101.245.01.305 1.022.305 1.072 0 1.137-.034.926-.511-.057-.129-4.315-10.356-4.551-10.914-.237-.559-.339-.6-1.225-.6-.877 0-.991.023-1.234.6-.247.587-4.521 10.859-4.574 10.988-.18.437-.019.437.707.437.68 0 .759-.021.888-.311l1.318-3.298c.079-.2.105-.28.339-.28.902 0 3.472 0 4.658-.004.227-.001.251.064.34.275m6.182-7.796c-.095-.447-.593-.719-1.165-.598-.573.12-.915.569-.82 1.015.096.446.593.718 1.166.597.573-.12.915-.569.819-1.014m8.056 11.029c0 .376.184.376.853.376.672 0 .857 0 .857-.376l.007-11.643c.007-.596-.815-.446-1.235-.172-.468.306-.484.458-.484 1.05zm5.471-11.026c-.096-.446-.592-.718-1.165-.597-.573.12-.916.569-.82 1.015.095.446.593.718 1.165.598.573-.121.916-.57.82-1.016m-1.849 11.021c0 .375.185.375.853.375.672 0 .857 0 .857-.375l.007-8.122c.007-.597-.815-.447-1.236-.173-.468.305-.483.458-.483 1.051zm11.464-5.452c.005-2.706-2.354-3.134-4.064-3.134-1.381 0-2.62.349-3.202.606-.575.254-.624.573-.624 1.098l.005 6.898c0 .374.185.374.855.374.674 0 .857 0 .857-.374l-.002-6.368c0-.562.199-1.339 2.151-1.339 1.846 0 2.309 1.092 2.309 2.239l.004 5.468c0 .374.183.374.853.374.676 0 .858 0 .858-.374zm18.045 3.438c-.067-2.998-5.664-2.448-5.666-4.538-.001-.817.84-1.194 1.75-1.194 1.311 0 1.745.438 2.019 1.076.128.298.387.571.887.571.377 0 .695-.24.695-.681 0-.663-.922-1.831-3.44-1.848-2.085-.014-3.497.781-3.499 2.428-.002 3.085 5.601 2.427 5.592 4.567-.004.884-.828 1.293-2.024 1.305-1.193.013-1.831-.471-2.176-1.308-.168-.34-.39-.646-.909-.637-.469.008-.747.309-.747.767 0 .629 1.094 2.09 3.753 2.09 2.178 0 3.803-.878 3.765-2.598m-107.718 2.014c0 .375.185.375.853.375.673 0 .858 0 .858-.375l.006-8.122c.008-.597-.815-.447-1.234-.173-.47.305-.484.458-.484 1.051zm31.693.584c1.427.01 2.151-.245 3.008-.637.642-.304.642-.644.642-1.038v-4.895c0-1.865-1.55-2.64-3.327-2.637-2.9.007-4.054 1.251-4.1 2.057-.024.429.231.743.731.754.487.011.778-.309.892-.575.356-.834.97-1.35 2.236-1.35.992 0 1.879.455 1.875 1.634v.52c0 .159 0 .192-.139.209-2.611.418-6.003 1.239-6.003 3.638 0 1.492 1.789 2.318 4.185 2.32m1.959-2.078c0 .905-1.178 1.144-2.049 1.144-1.538 0-2.302-.657-2.302-1.524 0-1.58 2.04-2.15 4.167-2.597.113-.024.182-.036.182.125zm-31.802-9.527c-.096-.446-.593-.718-1.166-.597-.572.12-.915.569-.82 1.015.096.446.594.718 1.167.598.572-.121.915-.57.819-1.016m46.201 11.036c0 .375.183.372.856.374.67.001.855.001.855-.374v-5.806c0-2.309-2.167-2.787-3.45-2.787-1.499 0-2.352.429-2.935 1.074-.623-.678-1.455-1.074-2.913-1.074-1.005 0-1.985.241-2.862.63-.634.281-.634.654-.634 1.016v6.947c0 .375.187.375.856.375.67 0 .855 0 .855-.375l.002-6.471c0-.965.774-1.23 1.789-1.23 1.264 0 2.038.594 2.038 2.085v5.616c0 .375.185.375.857.375.671 0 .853 0 .853-.375v-5.727c0-1.135.594-1.98 1.956-1.98 1.322 0 1.886.863 1.886 2.006zm-43.051-5.487c.152-1.068.967-2.251 2.578-2.264 1.349-.011 2.533.809 2.595 2.015.017.347-.074.39-.487.39h-4.555c-.127 0-.143-.057-.131-.141m6.876 3.218c0-.154-.118-.309-.335-.309-.197 0-.296.07-.414.275-.454.769-1.566 1.67-3.046 1.685-1.999.019-3.153-1.418-3.103-3.638 0-.076.032-.141.147-.144.115-.003 3.129-.005 6.168.001.582.001.592-.386.592-.704 0-1.839-1.713-3.537-4.169-3.537-2.55 0-4.508 1.391-4.508 4.59 0 3.404 2.544 4.612 4.713 4.612 2.621 0 3.955-2.027 3.955-2.831m80.709-3.218c.152-1.068.968-2.251 2.578-2.264 1.349-.011 2.533.809 2.595 2.015.018.347-.073.39-.487.39h-4.554c-.127 0-.144-.057-.132-.141m6.876 3.218c0-.154-.118-.309-.335-.309-.197 0-.295.07-.414.275-.453.769-1.567 1.67-3.046 1.685-1.999.019-3.153-1.418-3.103-3.638 0-.076.033-.141.147-.144.116-.003 3.129-.005 6.168.001.583.001.592-.386.592-.704 0-1.839-1.713-3.537-4.169-3.537-2.549 0-4.508 1.391-4.508 4.59 0 3.404 2.545 4.612 4.712 4.612 2.622 0 3.956-2.027 3.956-2.831m-106.839 2.042c.234.559.288.602 1.18.602.859 0 .878-.034 1.128-.608.25-.573 3.508-8.767 4.374-10.911.192-.476.109-.516-.659-.516-.673 0-.735.039-.863.329 0 0-3.652 9.339-3.731 9.554-.019.061-.097.066-.13-.007-.117-.265-3.825-9.574-3.825-9.574-.089-.238-.112-.324-1.115-.324-1.09 0-1.018.105-.801.642.053.129 4.207 10.253 4.442 10.813m20.908-8.261c-.401.006-.946.001-.946.001-.271 0-.273.149-.273.454 0 .29.001.442.272.442h.947c.195-.001.201.021.199.224-.004.428 0 5.589 0 5.589 0 2.035 1.089 2.278 2.165 2.295 1.065.015 1.764-.3 1.751-.676-.007-.218-.151-.316-.399-.288-.174.02-.296.073-.529.073-.565 0-1.274-.152-1.274-1.39l-.001-5.585c-.002-.216 0-.243.215-.242h1.542c.269 0 .279-.152.279-.442 0-.3-.01-.455-.279-.455h-1.55c-.209-.001-.205-.021-.206-.201v-1.88c-.001-.301-.23-.408-.414-.392-.135.012-.295.099-.675.347-.496.325-.625.532-.625 1.124v.787c-.001.216-.009.212-.199.215"/></svg>